# This file uses meters as units for non-parametric coordinates.

mtllib Chair.mtl
g default
v 9.837036 0.000001 17.047218
v 8.584961 0.000001 16.357323
v 9.507935 26.718249 15.796379
v 10.760376 26.718249 16.486198
v 17.630249 0.000001 13.740898
v 16.940430 0.000001 14.992668
v 16.590454 26.718249 14.799919
v 17.280884 26.718249 13.548119
v 8.512329 26.718249 8.713493
v 7.821533 26.718249 9.965324
v 6.741211 0.000001 9.983727
v 7.432007 0.000001 8.731987
v 15.594360 26.718249 7.717308
v 14.342407 26.718249 7.027214
v 14.535278 0.000001 6.677452
v 15.787231 0.000001 7.367546
v 8.199707 0.000001 -6.876259
v 7.256714 0.000001 -7.950905
v 8.315430 26.718249 -8.164436
v 9.258667 26.718249 -7.089821
v 16.652710 0.000001 -7.334816
v 15.578247 0.000001 -6.392403
v 15.314697 26.718249 -6.692635
v 16.389648 26.718249 -7.635078
v 9.787964 26.718249 -15.163734
v 8.712891 26.718249 -14.221535
v 7.690796 0.000001 -14.571541
v 8.765869 0.000001 -15.513741
v 16.786743 26.718249 -13.691872
v 15.844360 26.718249 -14.766579
v 16.144409 0.000001 -15.029884
v 17.086792 0.000001 -13.955177
v -20.497437 30.770045 18.223488
v -20.497437 31.547866 19.001259
v -21.027588 31.547866 18.223488
v 21.027710 31.547866 18.223488
v 20.497437 31.547866 19.001259
v 20.497437 30.770045 18.223488
v -21.027588 36.215402 18.223488
v -20.497437 36.215402 19.001259
v -20.497437 36.993226 18.223488
v 20.497437 36.993226 18.223488
v 20.497437 36.215402 19.001259
v 21.027710 36.215402 18.223488
v -21.027588 36.215402 7.008202
v -20.497437 36.993226 7.008202
v -20.497437 36.215402 6.230370
v 20.497437 36.215402 6.230370
v 20.497437 36.993226 7.008202
v 21.027710 36.215402 7.008202
v -21.027588 31.547866 7.008202
v -20.497437 31.547866 6.230370
v -20.497437 30.770045 7.008202
v 20.497437 30.770045 7.008202
v 20.497437 31.547866 6.230370
v 21.027710 31.547866 7.008202
v -20.380737 30.770043 6.127220
v -20.365112 31.547864 6.904900
v -20.910889 31.547864 6.137871
v 21.135986 31.547864 5.293510
v 20.621460 31.547864 6.081841
v 20.605835 30.770043 5.304161
v -20.910889 36.215402 6.137871
v -20.365112 36.215402 6.904900
v -20.380737 36.993226 6.127220
v 20.605835 36.993226 5.304161
v 20.621460 36.215402 6.081841
v 21.135986 36.215402 5.293510
v -21.135986 36.215402 -5.075111
v -20.605835 36.993226 -5.085732
v -20.621460 36.215402 -5.863411
v 20.365112 36.215402 -6.686470
v 20.380737 36.993226 -5.908821
v 20.910889 36.215402 -5.919472
v -21.135986 31.547864 -5.075111
v -20.621460 31.547864 -5.863411
v -20.605835 30.770043 -5.085732
v 20.380737 30.770043 -5.908821
v 20.365112 31.547864 -6.686470
v 20.910889 31.547864 -5.919472
v -20.497437 30.770045 -7.008186
v -20.497437 31.547866 -6.230354
v -21.027588 31.547866 -7.008186
v 21.027710 31.547866 -7.008186
v 20.497437 31.547866 -6.230354
v 20.497437 30.770045 -7.008186
v -21.027588 36.215402 -7.008186
v -20.497437 36.215402 -6.230354
v -20.497437 36.993226 -7.008186
v 20.497437 36.993226 -7.008186
v 20.497437 36.215402 -6.230354
v 21.027710 36.215402 -7.008186
v -21.027588 36.215402 -18.223427
v -20.497437 36.993226 -18.223427
v -20.497437 36.215402 -19.001259
v 20.497437 36.215402 -19.001259
v 20.497437 36.993226 -18.223427
v 21.027710 36.215402 -18.223427
v -21.027588 31.547866 -18.223427
v -20.497437 31.547866 -19.001259
v -20.497437 30.770045 -18.223427
v 20.497437 30.770045 -18.223427
v 20.497437 31.547866 -19.001259
v 21.027710 31.547866 -18.223427
v -17.548828 0.000001 -6.876289
v -18.491821 0.000001 -7.950905
v -17.432861 26.718249 -8.164436
v -16.489868 26.718249 -7.089821
v -9.095581 0.000001 -7.334816
v -10.170288 0.000001 -6.392403
v -10.433594 26.718249 -6.692635
v -9.358765 26.718249 -7.635078
v -15.960327 26.718249 -15.163765
v -17.035645 26.718249 -14.221565
v -18.057739 0.000001 -14.571571
v -16.982422 0.000001 -15.513771
v -8.961670 26.718249 -13.691872
v -9.904053 26.718249 -14.766579
v -9.603882 0.000001 -15.029884
v -8.661621 0.000001 -13.955177
v -18.245728 26.304355 -17.455513
v -18.947998 27.006686 -17.455513
v -18.245728 27.006686 -17.904854
v -18.245728 27.006686 17.732704
v -18.947998 27.006686 17.283302
v -18.245728 26.304355 17.283302
v -18.245728 31.221217 -17.904854
v -18.947998 31.221217 -17.455513
v -18.245728 31.923545 -17.455513
v -18.245728 31.923545 17.283302
v -18.947998 31.221217 17.283302
v -18.245728 31.221217 17.732704
v -8.119019 31.221217 -17.904854
v -8.119019 31.923545 -17.455513
v -7.416626 31.221217 -17.455513
v -7.416626 31.221217 17.283302
v -8.119019 31.923545 17.283302
v -8.119019 31.221217 17.732704
v -8.119019 27.006686 -17.904854
v -7.416626 27.006686 -17.455513
v -8.119019 26.304355 -17.455513
v -8.119019 26.304355 17.283302
v -7.416626 27.006686 17.283302
v -8.119019 27.006686 17.732704
v 8.381226 26.304355 -17.455513
v 7.678955 27.006686 -17.455513
v 8.381226 27.006686 -17.904854
v 8.381226 27.006686 17.732704
v 7.678955 27.006686 17.283302
v 8.381226 26.304355 17.283302
v 8.381226 31.221217 -17.904854
v 7.678955 31.221217 -17.455513
v 8.381226 31.923545 -17.455513
v 8.381226 31.923545 17.283302
v 7.678955 31.221217 17.283302
v 8.381226 31.221217 17.732704
v 18.507935 31.221217 -17.904854
v 18.507935 31.923545 -17.455513
v 19.210327 31.221217 -17.455513
v 19.210327 31.221217 17.283302
v 18.507935 31.923545 17.283302
v 18.507935 31.221217 17.732704
v 18.507935 27.006686 -17.904854
v 19.210327 27.006686 -17.455513
v 18.507935 26.304355 -17.455513
v 18.507935 26.304355 17.283302
v 19.210327 27.006686 17.283302
v 18.507935 27.006686 17.732704
v -15.911621 0.000001 17.047157
v -17.163818 0.000001 16.357323
v -16.240479 26.718249 15.796349
v -14.988159 26.718249 16.486198
v -8.118286 0.000001 13.740868
v -8.808350 0.000001 14.992668
v -9.158081 26.718249 14.799889
v -8.467773 26.718249 13.548149
v -17.236450 26.718249 8.713524
v -17.927124 26.718249 9.965263
v -19.007324 0.000001 9.983788
v -18.316650 0.000001 8.731926
v -10.154297 26.718249 7.717247
v -11.406128 26.718249 7.027214
v -11.213379 0.000001 6.677391
v -9.961304 0.000001 7.367516
vt 0.697118 0.885353
vt 0.737977 0.874711
vt 0.738367 0.895422
vt 0.697595 0.897658
vt 0.737957 0.886162
vt 0.738779 0.851825
vt 0.697562 0.859571
vt 0.697213 0.871879
vt 0.697481 0.861752
vt 0.738257 0.863263
vt 0.697147 0.887536
vt 0.737927 0.883979
vt 0.697178 0.874062
vt 0.738012 0.872529
vt 0.738924 0.849646
vt 0.698099 0.848292
vt 0.698245 0.846114
vt 0.738338 0.861082
vt 0.271801 0.013285
vt 0.312406 0.008978
vt 0.313158 0.020244
vt 0.272419 0.022532
vt 0.314094 0.046013
vt 0.273266 0.045417
vt 0.273039 0.036152
vt 0.313818 0.034725
vt 0.272541 0.024711
vt 0.313281 0.022423
vt 0.313742 0.032544
vt 0.272963 0.033970
vt 0.273278 0.047600
vt 0.314106 0.048196
vt 0.313851 0.058324
vt 0.271615 0.011109
vt 0.267871 0.373878
vt 0.278347 0.382457
vt 0.295473 0.382480
vt 0.305971 0.373930
vt 0.269551 0.373880
vt 0.268187 0.374860
vt 0.267958 0.311278
vt 0.269637 0.311280
vt 0.269549 0.375317
vt 0.276679 0.373890
vt 0.276677 0.375327
vt 0.278456 0.302727
vt 0.250832 0.311254
vt 0.295582 0.302751
vt 0.278447 0.309855
vt 0.276765 0.311290
vt 0.278357 0.375329
vt 0.278358 0.373892
vt 0.295484 0.373916
vt 0.297162 0.375355
vt 0.278445 0.311292
vt 0.295572 0.309878
vt 0.295888 0.310335
vt 0.297164 0.373918
vt 0.304291 0.373928
vt 0.304289 0.375365
vt 0.297250 0.311318
vt 0.297252 0.309881
vt 0.304380 0.309890
vt 0.304378 0.311328
vt 0.295482 0.375353
vt 0.267299 0.244957
vt 0.277755 0.253560
vt 0.294881 0.253621
vt 0.305399 0.245093
vt 0.268979 0.244963
vt 0.267612 0.245940
vt 0.267523 0.182358
vt 0.269202 0.182364
vt 0.268974 0.246401
vt 0.276106 0.244989
vt 0.276101 0.246426
vt 0.278040 0.173830
vt 0.250397 0.182296
vt 0.295166 0.173892
vt 0.278015 0.180958
vt 0.276330 0.182389
vt 0.277781 0.246432
vt 0.277786 0.244995
vt 0.294912 0.245056
vt 0.296586 0.246499
vt 0.278010 0.182395
vt 0.295141 0.181019
vt 0.295455 0.181476
vt 0.296591 0.245062
vt 0.303719 0.245087
vt 0.303714 0.246525
vt 0.296815 0.182462
vt 0.296820 0.181025
vt 0.303948 0.181050
vt 0.303942 0.182488
vt 0.294907 0.246493
vt 0.951894 0.486282
vt 0.962369 0.494862
vt 0.979494 0.494886
vt 0.989993 0.486335
vt 0.953574 0.486285
vt 0.952209 0.487264
vt 0.951981 0.423682
vt 0.953661 0.423685
vt 0.953571 0.487722
vt 0.960701 0.486295
vt 0.960699 0.487732
vt 0.962480 0.415132
vt 0.934855 0.423659
vt 0.979606 0.415156
vt 0.962470 0.422260
vt 0.960788 0.423695
vt 0.962379 0.487734
vt 0.962381 0.486297
vt 0.979506 0.486321
vt 0.981184 0.487761
vt 0.962468 0.423697
vt 0.979596 0.422284
vt 0.979912 0.422740
vt 0.981186 0.486323
vt 0.988313 0.486333
vt 0.988312 0.487771
vt 0.981273 0.423723
vt 0.981275 0.422286
vt 0.988403 0.422296
vt 0.988401 0.423733
vt 0.979504 0.487758
vt 0.937527 0.695316
vt 0.978333 0.696768
vt 0.977492 0.708028
vt 0.937017 0.658802
vt 0.978696 0.682276
vt 0.937868 0.681687
vt 0.937640 0.672421
vt 0.978419 0.670988
vt 0.937140 0.660981
vt 0.977879 0.658687
vt 0.978342 0.668807
vt 0.937563 0.670240
vt 0.937880 0.683870
vt 0.978708 0.684460
vt 0.978455 0.694588
vt 0.937648 0.693136
vt 0.963358 0.161476
vt 0.963399 0.162748
vt 0.947944 0.163256
vt 0.947902 0.161983
vt 0.964873 0.161426
vt 0.963686 0.162369
vt 0.961617 0.108458
vt 0.963133 0.108408
vt 0.964915 0.162699
vt 0.971306 0.161215
vt 0.971348 0.162487
vt 0.961575 0.107185
vt 0.946162 0.108965
vt 0.946120 0.107692
vt 0.961364 0.100753
vt 0.969565 0.108197
vt 0.963611 0.169181
vt 0.972822 0.161165
vt 0.988277 0.160658
vt 0.939996 0.163517
vt 0.961322 0.099480
vt 0.945909 0.101260
vt 0.936966 0.108363
vt 0.939954 0.162244
vt 0.946387 0.162033
vt 0.946428 0.163306
vt 0.938214 0.109226
vt 0.938172 0.107954
vt 0.944604 0.107742
vt 0.944646 0.109015
vt 0.948155 0.169688
vt 0.963002 0.076184
vt 0.963044 0.077457
vt 0.947589 0.077966
vt 0.947547 0.076693
vt 0.964518 0.076135
vt 0.963330 0.077077
vt 0.961256 0.023166
vt 0.962772 0.023116
vt 0.964560 0.077407
vt 0.970950 0.075923
vt 0.970992 0.077195
vt 0.961214 0.021894
vt 0.945801 0.023675
vt 0.945759 0.022403
vt 0.961002 0.015462
vt 0.969204 0.022905
vt 0.963256 0.083889
vt 0.972466 0.075873
vt 0.987921 0.075364
vt 0.939641 0.078228
vt 0.960961 0.014189
vt 0.945547 0.015971
vt 0.936605 0.023074
vt 0.939599 0.076955
vt 0.946031 0.076743
vt 0.946073 0.078016
vt 0.937853 0.023937
vt 0.937811 0.022664
vt 0.944243 0.022453
vt 0.944285 0.023725
vt 0.947801 0.084398
vt 0.986032 0.319978
vt 0.945201 0.319664
vt 0.945728 0.308385
vt 0.986465 0.310721
vt 0.945242 0.334160
vt 0.986071 0.333612
vt 0.986557 0.342867
vt 0.945834 0.345436
vt 0.986590 0.308542
vt 0.945853 0.306206
vt 0.946540 0.296098
vt 0.987218 0.299294
vt 0.985998 0.331430
vt 0.945169 0.331978
vt 0.945140 0.321846
vt 0.985971 0.322161
vt 0.986694 0.345045
vt 0.945971 0.347614
vt 0.295584 0.301313
vt 0.305742 0.310348
vt 0.306057 0.311330
vt 0.305653 0.374911
vt 0.295471 0.383918
vt 0.250746 0.373854
vt 0.295570 0.311316
vt 0.295799 0.374897
vt 0.278129 0.310310
vt 0.276767 0.309852
vt 0.278041 0.374873
vt 0.269639 0.309843
vt 0.268276 0.310297
vt 0.278458 0.301290
vt 0.278345 0.383894
vt 0.295171 0.172454
vt 0.305309 0.181511
vt 0.305622 0.182494
vt 0.305079 0.246074
vt 0.294876 0.255058
vt 0.250173 0.244896
vt 0.295135 0.182456
vt 0.295225 0.246038
vt 0.277697 0.181413
vt 0.276335 0.180952
vt 0.277466 0.245975
vt 0.269208 0.180926
vt 0.267843 0.181378
vt 0.278045 0.172393
vt 0.277750 0.254997
vt 0.979608 0.413719
vt 0.989765 0.422754
vt 0.990081 0.423736
vt 0.989675 0.487317
vt 0.979492 0.496323
vt 0.934768 0.486259
vt 0.979594 0.423721
vt 0.979822 0.487303
vt 0.962153 0.422715
vt 0.960790 0.422257
vt 0.962063 0.487278
vt 0.953663 0.422247
vt 0.952299 0.422702
vt 0.962482 0.413695
vt 0.962367 0.496299
vt 0.945834 0.108072
vt 0.947634 0.162896
vt 0.945867 0.099988
vt 0.986536 0.107639
vt 0.936698 0.109276
vt 0.948197 0.170961
vt 0.938766 0.163187
vt 0.938438 0.162294
vt 0.970753 0.107254
vt 0.969523 0.106924
vt 0.963652 0.170453
vt 0.963091 0.107136
vt 0.961886 0.107545
vt 0.972553 0.162078
vt 0.971081 0.108147
vt 0.945473 0.022782
vt 0.947278 0.077606
vt 0.945505 0.014698
vt 0.986176 0.022346
vt 0.936337 0.023987
vt 0.947842 0.085671
vt 0.938411 0.077898
vt 0.938083 0.077005
vt 0.970392 0.021962
vt 0.970720 0.022855
vt 0.969162 0.021632
vt 0.972197 0.076786
vt 0.963298 0.085162
vt 0.962730 0.021844
vt 0.961525 0.022254
vt 0.977757 0.656507
vt 0.936836 0.704558
vt 0.312220 0.006803
vt 0.273044 0.056866
vn 0.155238 0.015375 0.987758
vn 0.146931 0.015689 0.989022
vn 0.400523 0.011854 0.916210
vn 0.399144 0.011841 0.916812
vn -0.403702 0.015689 -0.914756
vn -0.396002 0.015375 -0.918121
vn -0.151887 0.011841 -0.988327
vn -0.150402 0.011855 -0.988554
vn 0.989308 0.011899 -0.145357
vn 0.989534 0.011913 -0.143809
vn 0.913528 0.011914 -0.406601
vn 0.914163 0.011900 -0.405172
vn -0.988805 0.040075 0.143734
vn -0.988600 0.040068 0.145134
vn -0.913437 0.040067 0.405003
vn -0.912863 0.040074 0.406295
vn -0.189964 0.015375 0.981671
vn -0.198205 0.015688 0.980035
vn 0.065030 0.011853 0.997813
vn 0.063530 0.011840 0.997910
vn -0.068512 0.015688 -0.997527
vn -0.060129 0.015375 -0.998072
vn 0.193307 0.011839 -0.981067
vn 0.194779 0.011853 -0.980776
vn 0.979775 0.011894 0.199749
vn 0.979461 0.011908 0.201282
vn 0.997358 0.011907 -0.071662
vn 0.997469 0.011893 -0.070101
vn -0.978747 0.040071 -0.201121
vn -0.979031 0.040064 -0.199735
vn -0.996729 0.040064 0.070186
vn -0.996628 0.040071 0.071597
vn -0.017853 -0.997779 0.064172
vn -0.994791 -0.093580 0.040414
vn -0.994791 -0.093580 -0.040414
vn -0.017853 -0.997779 -0.064172
vn -0.016713 -0.140316 0.989966
vn 0.017853 -0.997779 0.064172
vn 0.016713 -0.140316 0.989966
vn -0.016713 0.140316 0.989966
vn -0.994791 0.093580 0.040414
vn 0.994788 -0.093611 0.040423
vn 0.017853 -0.997779 -0.064171
vn 0.994788 -0.093610 -0.040423
vn 0.994788 0.093611 0.040423
vn 0.016713 0.140316 0.989966
vn -0.017853 0.997779 0.064172
vn -0.017853 0.997779 -0.064172
vn -0.994791 0.093580 -0.040414
vn 0.017853 0.997779 0.064172
vn 0.994788 0.093610 -0.040423
vn 0.017853 0.997779 -0.064172
vn -0.016714 0.140327 -0.989964
vn -0.016714 -0.140327 -0.989964
vn 0.016714 0.140327 -0.989964
vn 0.016714 -0.140327 -0.989964
vn -0.016561 -0.997779 0.064517
vn -0.993777 -0.093609 0.060381
vn -0.995399 -0.093608 -0.020447
vn -0.019138 -0.997779 -0.063800
vn 0.003165 -0.140328 0.990100
vn 0.019137 -0.997779 0.063800
vn 0.036587 -0.140327 0.989429
vn 0.003165 0.140328 0.990100
vn -0.993776 0.093608 0.060381
vn 0.995398 -0.093623 0.020447
vn 0.016561 -0.997779 -0.064517
vn 0.993775 -0.093623 -0.060381
vn 0.995398 0.093623 0.020447
vn 0.036587 0.140327 0.989429
vn -0.016561 0.997779 0.064517
vn -0.019138 0.997779 -0.063801
vn -0.995399 0.093608 -0.020447
vn 0.019138 0.997779 0.063801
vn 0.993775 0.093623 -0.060381
vn 0.016561 0.997779 -0.064517
vn -0.036586 0.140324 -0.989429
vn -0.036587 -0.140324 -0.989429
vn -0.003165 0.140325 -0.990100
vn -0.003166 -0.140325 -0.990100
vn -0.017853 -0.997779 0.064172
vn -0.994791 -0.093580 0.040414
vn -0.994791 -0.093580 -0.040414
vn -0.017853 -0.997779 -0.064172
vn -0.016715 -0.140327 0.989964
vn 0.017853 -0.997779 0.064172
vn 0.016715 -0.140327 0.989964
vn -0.016715 0.140327 0.989964
vn -0.994791 0.093580 0.040414
vn 0.994788 -0.093611 0.040423
vn 0.017853 -0.997779 -0.064172
vn 0.994788 -0.093611 -0.040423
vn 0.994788 0.093611 0.040423
vn 0.016715 0.140327 0.989964
vn -0.017853 0.997779 0.064172
vn -0.017853 0.997779 -0.064172
vn -0.994791 0.093580 -0.040414
vn 0.017853 0.997779 0.064172
vn 0.994788 0.093611 -0.040423
vn 0.017853 0.997779 -0.064172
vn -0.016714 0.140327 -0.989964
vn -0.016714 -0.140327 -0.989964
vn 0.016714 0.140327 -0.989964
vn 0.016714 -0.140327 -0.989964
vn -0.189965 0.015374 0.981671
vn -0.198205 0.015687 0.980035
vn 0.065028 0.011853 0.997813
vn 0.063529 0.011840 0.997910
vn -0.068509 0.015688 -0.997527
vn -0.060125 0.015374 -0.998073
vn 0.193314 0.011839 -0.981066
vn 0.194787 0.011853 -0.980774
vn 0.979775 0.011891 0.199749
vn 0.979461 0.011906 0.201282
vn 0.997358 0.011904 -0.071662
vn 0.997469 0.011890 -0.070101
vn -0.978743 0.040073 -0.201136
vn -0.979028 0.040066 -0.199749
vn -0.996729 0.040066 0.070186
vn -0.996628 0.040073 0.071597
vn -0.064167 -0.997758 -0.019018
vn -0.038009 -0.087948 -0.995400
vn 0.038008 -0.087947 -0.995400
vn 0.064167 -0.997758 -0.019018
vn -0.989947 -0.140317 -0.017796
vn -0.064167 -0.997758 0.019017
vn -0.989947 -0.140317 0.017796
vn -0.989947 0.140317 -0.017796
vn -0.038009 0.087948 -0.995400
vn -0.038014 -0.087960 0.995398
vn 0.064167 -0.997758 0.019018
vn 0.038014 -0.087959 0.995399
vn -0.038014 0.087960 0.995398
vn -0.989947 0.140317 0.017796
vn -0.064167 0.997758 -0.019017
vn 0.064167 0.997758 -0.019018
vn 0.038008 0.087947 -0.995400
vn -0.064167 0.997758 0.019017
vn 0.038014 0.087959 0.995399
vn 0.064167 0.997758 0.019017
vn 0.989947 0.140317 -0.017799
vn 0.989947 -0.140317 -0.017799
vn 0.989947 0.140317 0.017799
vn 0.989947 -0.140317 0.017799
vn -0.064167 -0.997758 -0.019018
vn -0.038009 -0.087949 -0.995400
vn 0.038008 -0.087948 -0.995400
vn 0.064167 -0.997758 -0.019018
vn -0.989947 -0.140317 -0.017796
vn -0.064167 -0.997758 0.019017
vn -0.989947 -0.140317 0.017796
vn -0.989947 0.140317 -0.017796
vn -0.038009 0.087949 -0.995400
vn -0.038014 -0.087960 0.995398
vn 0.064167 -0.997758 0.019018
vn 0.038014 -0.087960 0.995399
vn -0.038014 0.087960 0.995398
vn -0.989947 0.140317 0.017796
vn -0.064167 0.997758 -0.019017
vn 0.064167 0.997758 -0.019018
vn 0.038008 0.087948 -0.995400
vn -0.064167 0.997758 0.019017
vn 0.038014 0.087960 0.995399
vn 0.064167 0.997758 0.019017
vn 0.989947 0.140317 -0.017799
vn 0.989947 -0.140317 -0.017799
vn 0.989947 0.140317 0.017799
vn 0.989947 -0.140317 0.017799
vn 0.155239 0.015375 0.987757
vn 0.146931 0.015689 0.989022
vn 0.400518 0.011853 0.916212
vn 0.399142 0.011839 0.916813
vn -0.403705 0.015692 -0.914755
vn -0.396007 0.015379 -0.918119
vn -0.151891 0.011844 -0.988326
vn -0.150407 0.011858 -0.988553
vn 0.989309 0.011898 -0.145348
vn 0.989535 0.011912 -0.143801
vn 0.913529 0.011914 -0.406599
vn 0.914164 0.011900 -0.405170
vn -0.988802 0.040080 0.143750
vn -0.988598 0.040072 0.145150
vn -0.913436 0.040072 0.405004
vn -0.912862 0.040080 0.406297
s 1
g Chair
usemtl initialShadingGroup
f 4/12/1 1/1/2 6/13/3 7/2/4
f 12/16/5 9/6/6 14/18/7 15/7/8
f 8/14/9 5/8/10 16/9/11 13/10/12
f 10/3/13 11/4/14 2/11/15 3/5/16
f 2/11/15 1/1/2 4/12/1 3/5/16
f 6/13/3 5/8/10 8/14/9 7/2/4
f 10/15/13 9/6/6 12/16/5 11/17/14
f 14/18/7 13/10/12 16/9/11 15/7/8
s 3
f 20/19/17 17/20/18 22/21/19 23/22/20
f 28/23/21 25/24/22 30/25/23 31/26/24
f 24/27/25 21/28/26 32/29/27 29/30/28
f 26/31/29 27/32/30 18/33/31 19/302/32
f 18/301/31 17/20/18 20/19/17 19/34/32
f 22/21/19 21/28/26 24/27/25 23/22/20
f 26/31/29 25/24/22 28/23/21 27/32/30
f 30/25/23 29/30/28 32/29/27 31/26/24
s 5
f 33/238/33 35/36/34 51/37/35 53/228/36
f 34/39/37 33/35/33 38/41/38 37/42/39
f 35/43/34 34/39/37 40/44/40 39/45/41
f 36/46/42 38/237/38 54/224/43 56/48/44
f 37/42/39 36/235/42 44/233/45 43/50/46
f 39/51/41 41/52/47 46/53/48 45/65/49
f 41/52/47 40/44/40 43/50/46 42/55/50
f 42/55/50 44/49/45 50/56/51 49/230/52
f 45/54/49 47/58/53 52/59/54 51/60/35
f 47/58/53 46/53/48 49/230/52 48/61/55
f 48/61/55 50/62/51 56/63/44 55/64/56
f 53/38/36 52/59/54 55/64/56 54/226/43
f 34/39/37 37/42/39 43/50/46 40/44/40
f 41/52/47 42/55/50 49/230/52 46/53/48
f 47/58/53 48/61/55 55/64/56 52/59/54
f 53/229/36 54/47/43 38/41/38 33/35/33
f 36/46/42 56/48/44 50/56/51 44/49/45
f 51/37/35 35/36/34 39/51/41 45/65/49
f 33/40/33 34/39/37 35/43/34
f 36/235/42 37/42/39 38/236/38
f 39/45/41 40/44/40 41/234/47
f 42/232/50 43/50/46 44/233/45
f 45/54/49 46/231/48 47/58/53
f 48/61/55 49/57/52 50/62/51
f 51/60/35 52/59/54 53/227/36
f 54/225/43 55/64/56 56/63/44
s 6
f 57/253/57 59/67/58 75/68/59 77/243/60
f 58/70/61 57/66/57 62/72/62 61/73/63
f 59/74/58 58/70/61 64/75/64 63/76/65
f 60/77/66 62/252/62 78/239/67 80/79/68
f 61/73/63 60/250/66 68/248/69 67/81/70
f 63/82/65 65/83/71 70/84/72 69/96/73
f 65/83/71 64/75/64 67/81/70 66/86/74
f 66/86/74 68/80/69 74/87/75 73/245/76
f 69/85/73 71/89/77 76/90/78 75/91/59
f 71/89/77 70/84/72 73/245/76 72/92/79
f 72/92/79 74/93/75 80/94/68 79/95/80
f 77/69/60 76/90/78 79/95/80 78/241/67
f 58/70/61 61/73/63 67/81/70 64/75/64
f 65/83/71 66/86/74 73/245/76 70/84/72
f 71/89/77 72/92/79 79/95/80 76/90/78
f 77/244/60 78/78/67 62/72/62 57/66/57
f 60/77/66 80/79/68 74/87/75 68/80/69
f 75/68/59 59/67/58 63/82/65 69/96/73
f 57/71/57 58/70/61 59/74/58
f 60/250/66 61/73/63 62/251/62
f 63/76/65 64/75/64 65/249/71
f 66/247/74 67/81/70 68/248/69
f 69/85/73 70/246/72 71/89/77
f 72/92/79 73/88/76 74/93/75
f 75/91/59 76/90/78 77/242/60
f 78/240/67 79/95/80 80/94/68
s 7
f 81/268/81 83/98/82 99/99/83 101/258/84
f 82/101/85 81/97/81 86/103/86 85/104/87
f 83/105/82 82/101/85 88/106/88 87/107/89
f 84/108/90 86/267/86 102/254/91 104/110/92
f 85/104/87 84/265/90 92/263/93 91/112/94
f 87/113/89 89/114/95 94/115/96 93/127/97
f 89/114/95 88/106/88 91/112/94 90/117/98
f 90/117/98 92/111/93 98/118/99 97/260/100
f 93/116/97 95/120/101 100/121/102 99/122/83
f 95/120/101 94/115/96 97/260/100 96/123/103
f 96/123/103 98/124/99 104/125/92 103/126/104
f 101/100/84 100/121/102 103/126/104 102/256/91
f 82/101/85 85/104/87 91/112/94 88/106/88
f 89/114/95 90/117/98 97/260/100 94/115/96
f 95/120/101 96/123/103 103/126/104 100/121/102
f 101/259/84 102/109/91 86/103/86 81/97/81
f 84/108/90 104/110/92 98/118/99 92/111/93
f 99/99/83 83/98/82 87/113/89 93/127/97
f 81/102/81 82/101/85 83/105/82
f 84/265/90 85/104/87 86/266/86
f 87/107/89 88/106/88 89/264/95
f 90/262/98 91/112/94 92/263/93
f 93/116/97 94/261/96 95/120/101
f 96/123/103 97/119/100 98/124/99
f 99/122/83 100/121/102 101/257/84
f 102/255/91 103/126/104 104/125/92
s 8
f 108/128/105 105/129/106 110/130/107 111/300/108
f 116/132/109 113/133/110 118/134/111 119/135/112
f 112/136/113 109/137/114 120/138/115 117/139/116
f 114/140/117 115/141/118 106/142/119 107/143/120
f 106/142/119 105/129/106 108/128/105 107/143/120
f 110/299/107 109/137/114 112/136/113 111/131/108
f 114/140/117 113/133/110 116/132/109 115/141/118
f 118/134/111 117/139/116 120/138/115 119/135/112
s 10
f 121/144/121 123/145/122 139/146/123 141/147/124
f 122/148/125 121/144/121 126/150/126 125/151/127
f 123/152/122 122/148/125 128/153/128 127/154/129
f 124/155/130 126/150/126 142/156/131 144/157/132
f 125/151/127 124/280/130 132/278/133 131/159/134
f 127/160/129 129/279/135 134/274/136 133/174/137
f 129/161/135 128/153/128 131/159/134 130/283/138
f 130/164/138 132/158/133 138/165/139 137/271/140
f 133/163/137 135/167/141 140/168/142 139/169/123
f 135/167/141 134/276/136 137/273/140 136/170/143
f 136/170/143 138/171/139 144/172/132 143/173/144
f 141/147/124 140/168/142 143/173/144 142/156/131
f 122/148/125 125/151/127 131/159/134 128/153/128
f 129/161/135 130/283/138 137/272/140 134/162/136
f 135/167/141 136/170/143 143/173/144 140/168/142
f 141/147/124 142/156/131 126/150/126 121/144/121
f 124/155/130 144/157/132 138/165/139 132/158/133
f 139/146/123 123/145/122 127/160/129 133/174/137
f 121/149/121 122/148/125 123/152/122
f 124/280/130 125/151/127 126/281/126
f 127/154/129 128/153/128 129/282/135
f 130/277/138 131/159/134 132/278/133
f 133/163/137 134/275/136 135/167/141
f 136/170/143 137/166/140 138/171/139
f 139/169/123 140/168/142 141/270/124
f 142/269/131 143/173/144 144/172/132
s 11
f 145/175/145 147/176/146 163/177/147 165/178/148
f 146/179/149 145/175/145 150/181/150 149/182/151
f 147/183/146 146/179/149 152/184/152 151/185/153
f 148/186/154 150/181/150 166/187/155 168/188/156
f 149/182/151 148/297/154 156/294/157 155/190/158
f 151/191/153 153/296/159 158/289/160 157/205/161
f 153/192/159 152/184/152 155/190/158 154/293/162
f 154/195/162 156/189/157 162/196/163 161/286/164
f 157/194/161 159/198/165 164/199/166 163/200/147
f 159/198/165 158/291/160 161/288/164 160/201/167
f 160/201/167 162/202/163 168/203/156 167/204/168
f 165/178/148 164/199/166 167/204/168 166/187/155
f 146/179/149 149/182/151 155/190/158 152/184/152
f 153/192/159 154/293/162 161/287/164 158/193/160
f 159/198/165 160/201/167 167/204/168 164/199/166
f 165/178/148 166/187/155 150/181/150 145/175/145
f 148/186/154 168/188/156 162/196/163 156/189/157
f 163/177/147 147/176/146 151/191/153 157/205/161
f 145/180/145 146/179/149 147/183/146
f 148/297/154 149/182/151 150/298/150
f 151/185/153 152/184/152 153/295/159
f 154/292/162 155/190/158 156/294/157
f 157/194/161 158/290/160 159/198/165
f 160/201/167 161/197/164 162/202/163
f 163/200/147 164/199/166 165/285/148
f 166/284/155 167/204/168 168/203/156
s 12
f 172/206/169 169/207/170 174/208/171 175/209/172
f 180/210/173 177/211/174 182/212/175 183/213/176
f 176/214/177 173/215/178 184/216/179 181/217/180
f 178/218/181 179/219/182 170/220/183 171/221/184
f 170/220/183 169/207/170 172/206/169 171/221/184
f 174/208/171 173/215/178 176/214/177 175/209/172
f 178/218/181 177/211/174 180/210/173 179/219/182
f 182/212/175 181/222/180 184/223/179 183/213/176
