# This file uses meters as units for non-parametric coordinates.

mtllib Shelf.mtl
g default
v -47.925213 13.509099 16.047764
v -47.925213 15.583867 18.122539
v -49.999981 15.583867 16.047764
v 50.000019 15.583867 16.047764
v 47.925251 15.583867 18.122539
v 47.925251 13.509099 16.047764
v -49.999981 20.656438 16.047764
v -47.925213 20.656438 18.122539
v -47.925213 22.731206 16.047764
v 47.925251 22.731206 16.047764
v 47.925251 20.656438 18.122539
v 50.000019 20.656438 16.047764
v -49.999981 20.656438 -16.893788
v -47.925213 22.731206 -16.893788
v 47.925251 22.731206 -16.893788
v 50.000019 20.656438 -16.893788
v -47.925213 13.509099 -16.893788
v -49.999981 15.583867 -16.893788
v 50.000019 15.583867 -16.893788
v 47.925251 13.509099 -16.893788
v -42.812359 14.689657 -18.122532
v -34.911602 14.689657 -18.122532
v -42.812359 -22.731204 -18.122532
v -34.911602 -22.731204 -18.122532
v -42.812359 -14.963313 -18.122532
v -34.911602 -14.963313 -18.122532
v -42.812359 -6.120257 -18.122532
v -34.911602 -6.120257 -18.122532
v -42.812359 1.743101 -18.122532
v -34.911602 1.743101 -18.122532
v -42.812359 8.156576 -18.122532
v -34.911602 8.156576 -18.122532
v -42.812359 -22.731204 -16.998753
v -40.839947 -22.731204 -14.912426
v -42.823895 -14.327128 -14.117802
v -40.842693 -15.092234 -12.297939
v -34.911602 -22.731204 -16.993199
v -36.884625 -22.731204 -14.912426
v -34.911602 -14.172465 -14.118046
v -36.874065 -15.005961 -12.306950
v -42.826519 -5.211108 -9.114414
v -40.841473 -6.249156 -7.442822
v -36.870892 -6.162852 -7.451786
v -34.911602 -5.045603 -9.100521
v -42.812359 3.131116 -2.833470
v -40.839153 1.743101 -1.408177
v -36.884625 1.743101 -1.408177
v -34.911602 3.138509 -2.824162
v -42.812359 8.156576 4.317348
v -40.447125 8.156576 6.682491
v -37.276653 8.156576 6.682491
v -34.911602 8.156576 4.317348
v -40.839153 14.689657 14.819645
v -42.812359 14.689657 11.668003
v -34.911602 14.689657 11.668003
v -36.884625 14.689657 14.819645
v 30.981769 14.689657 -18.122532
v 38.882526 14.689657 -18.122532
v 30.981769 -22.731204 -18.122532
v 38.882526 -22.731204 -18.122532
v 30.981769 -14.963313 -18.122532
v 38.882526 -14.963313 -18.122532
v 30.981769 -6.120257 -18.122532
v 38.882526 -6.120257 -18.122532
v 30.981769 1.743101 -18.122532
v 38.882526 1.743101 -18.122532
v 30.981769 8.156576 -18.122532
v 38.882526 8.156576 -18.122532
v 30.981769 -22.731204 -16.998753
v 32.954182 -22.731204 -14.912426
v 30.970234 -14.327128 -14.117802
v 32.951435 -15.092234 -12.297939
v 38.882526 -22.731204 -16.993199
v 36.909504 -22.731204 -14.912426
v 38.882526 -14.172465 -14.118046
v 36.920063 -15.005961 -12.306950
v 30.967609 -5.211108 -9.114414
v 32.952656 -6.249156 -7.442822
v 36.923237 -6.162852 -7.451786
v 38.882526 -5.045603 -9.100521
v 30.981769 3.131116 -2.833470
v 32.954975 1.743101 -1.408177
v 36.909504 1.743101 -1.408177
v 38.882526 3.138509 -2.824162
v 30.981769 8.156576 4.317348
v 33.347004 8.156576 6.682491
v 36.517475 8.156576 6.682491
v 38.882526 8.156576 4.317348
v 32.954975 14.689657 14.819645
v 30.981769 14.689657 11.668003
v 38.882526 14.689657 11.668003
v 36.909504 14.689657 14.819645
vt 0.122411 0.069307
vt 0.110284 0.086087
vt 0.110585 0.136388
vt 0.120174 0.069921
vt 0.122438 0.073787
vt 0.281100 0.085066
vt 0.268774 0.068433
vt 0.268473 0.018131
vt 0.281400 0.135368
vt 0.118030 0.086040
vt 0.122811 0.136315
vt 0.118331 0.136342
vt 0.122484 0.081533
vt 0.268847 0.080659
vt 0.273354 0.085112
vt 0.273654 0.135414
vt 0.268800 0.072913
vt 0.122511 0.086014
vt 0.268874 0.085139
vt 0.269174 0.135441
vt 0.106104 0.136415
vt 0.117957 0.073814
vt 0.118003 0.081560
vt 0.271110 0.084526
vt 0.273327 0.080632
vt 0.120267 0.085427
vt 0.273281 0.072886
vt 0.285881 0.135341
vt 0.271017 0.069019
vt 0.285580 0.085039
vt 0.105804 0.086113
vt 0.122110 0.019006
vt 0.907591 0.598016
vt 0.908744 0.585890
vt 0.911121 0.589510
vt 0.910435 0.594807
vt 0.922340 0.596196
vt 0.921530 0.600397
vt 0.938334 0.597490
vt 0.937788 0.601784
vt 0.922913 0.585811
vt 0.922907 0.590103
vt 0.939175 0.587002
vt 0.938894 0.591321
vt 0.954532 0.599036
vt 0.954333 0.603743
vt 0.955621 0.587755
vt 0.955050 0.592426
vt 0.970644 0.599379
vt 0.967654 0.603404
vt 0.968723 0.590196
vt 0.971047 0.594643
vt 0.986376 0.601143
vt 0.982350 0.604813
vt 0.983478 0.591149
vt 0.986870 0.595424
vt 0.908081 0.584310
vt 0.919177 0.580599
vt 0.906688 0.599464
vt 0.917181 0.605038
vt 0.941797 0.625251
vt 0.947964 0.632861
vt 0.946599 0.564539
vt 0.953892 0.557990
vt 0.927639 0.611711
vt 0.930504 0.575704
vt 0.935762 0.618591
vt 0.939587 0.570182
vt 0.905875 0.597843
vt 0.907022 0.585720
vt 0.256760 0.471833
vt 0.257913 0.459707
vt 0.260289 0.463327
vt 0.259604 0.468624
vt 0.271509 0.470012
vt 0.270699 0.474214
vt 0.287504 0.471307
vt 0.286957 0.475601
vt 0.272082 0.459627
vt 0.272076 0.463920
vt 0.288344 0.460818
vt 0.288063 0.465138
vt 0.303701 0.472852
vt 0.303502 0.477559
vt 0.304790 0.461571
vt 0.304219 0.466243
vt 0.319813 0.473196
vt 0.316823 0.477221
vt 0.317892 0.464012
vt 0.320216 0.468459
vt 0.335545 0.474960
vt 0.331519 0.478629
vt 0.332647 0.464965
vt 0.336039 0.469240
vt 0.257250 0.458126
vt 0.268347 0.454416
vt 0.255857 0.473280
vt 0.266351 0.478854
vt 0.290966 0.499068
vt 0.297133 0.506678
vt 0.295768 0.438355
vt 0.303061 0.431806
vt 0.276808 0.485528
vt 0.279673 0.449521
vt 0.284931 0.492407
vt 0.288756 0.443999
vt 0.255044 0.471660
vt 0.256191 0.459536
vn -0.020328 -0.998089 0.058352
vn -0.961410 -0.271167 0.046474
vn -0.960356 -0.278776 0.000000
vn -0.021183 -0.999776 0.000000
vn -0.016488 -0.276150 0.960973
vn 0.020328 -0.998089 0.058352
vn 0.016488 -0.276150 0.960973
vn -0.016488 0.276150 0.960973
vn -0.961410 0.271167 0.046474
vn 0.961408 -0.271174 0.046474
vn 0.021183 -0.999776 0.000000
vn 0.960354 -0.278783 0.000000
vn 0.961408 0.271174 0.046474
vn 0.016488 0.276150 0.960973
vn -0.020328 0.998089 0.058352
vn -0.021183 0.999776 0.000000
vn -0.960356 0.278776 0.000000
vn 0.020328 0.998089 0.058352
vn 0.960354 0.278783 0.000000
vn 0.021183 0.999776 0.000000
vn -0.849879 -0.437217 0.294189
vn 0.850866 -0.433257 0.297180
vn 0.311169 -0.552103 0.773535
vn -0.303659 -0.555237 0.774276
vn -0.323163 -0.389369 0.862530
vn -0.964846 -0.108483 0.239380
vn -0.318629 -0.515059 0.795732
vn -0.983815 -0.096924 0.150711
vn 0.965198 -0.107194 0.238544
vn 0.336989 -0.387238 0.858187
vn 0.983991 -0.097357 0.149273
vn 0.333220 -0.513856 0.790516
vn -0.309019 -0.664063 0.680828
vn -0.989786 -0.099882 0.101719
vn 0.989779 -0.100468 0.101214
vn 0.313376 -0.664165 0.678734
vn -0.276966 -0.750149 0.600471
vn -0.992004 -0.099033 0.078231
vn 0.992009 -0.099012 0.078204
vn 0.276945 -0.750159 0.600470
vn -0.201739 -0.762372 0.614891
vn -0.955971 -0.227217 0.185719
vn 0.955976 -0.227210 0.185704
vn 0.201736 -0.762374 0.614889
vn 0.916462 -0.400123 0.000000
vn 1.000000 0.000004 0.000000
vn -0.915555 -0.402187 -0.002023
vn -0.999998 0.000193 -0.002081
vn -1.000000 0.000007 0.000000
vn -1.000000 0.000011 0.000000
vn 1.000000 0.000000 0.000000
vn 1.000000 0.000003 0.000000
vn -0.999999 0.000843 -0.001229
vn 1.000000 0.000000 0.000000
vn -1.000000 0.000569 -0.000347
vn 1.000000 -0.000002 0.000000
vn -0.849875 -0.437227 0.294187
vn 0.850865 -0.433259 0.297180
vn 0.311169 -0.552104 0.773534
vn -0.303657 -0.555245 0.774271
vn -0.323161 -0.389381 0.862525
vn -0.964847 -0.108482 0.239380
vn -0.318628 -0.515065 0.795729
vn -0.983815 -0.096923 0.150711
vn 0.965198 -0.107193 0.238544
vn 0.336989 -0.387238 0.858187
vn 0.983992 -0.097354 0.149273
vn 0.333219 -0.513859 0.790515
vn -0.309015 -0.664072 0.680822
vn -0.989786 -0.099885 0.101718
vn 0.989779 -0.100466 0.101213
vn 0.313376 -0.664165 0.678735
vn -0.276961 -0.750157 0.600464
vn -0.992003 -0.099047 0.078230
vn 0.992009 -0.099009 0.078204
vn 0.276949 -0.750153 0.600474
vn -0.201737 -0.762374 0.614889
vn -0.955968 -0.227230 0.185718
vn 0.955977 -0.227203 0.185707
vn 0.201740 -0.762369 0.614893
vn 0.916457 -0.400133 0.000000
vn 1.000000 0.000000 0.000000
vn -0.915550 -0.402198 -0.002023
vn -0.999998 0.000201 -0.002081
vn -1.000000 0.000000 0.000000
vn -1.000000 0.000000 0.000000
vn 1.000000 -0.000004 0.000000
vn 1.000000 0.000000 0.000000
vn -0.999999 0.000850 -0.001229
vn 1.000000 0.000003 0.000000
vn -1.000000 0.000569 -0.000347
vn 1.000000 -0.000002 0.000000
s 1
g Shelf
usemtl initialShadingGroup
f 1/31/1 3/2/2 18/3/3 17/21/4
f 2/5/5 1/1/1 6/7/6 5/17/7
f 3/22/2 2/5/5 8/13/8 7/23/9
f 4/6/10 6/30/6 20/28/11 19/9/12
f 5/17/7 4/27/10 12/25/13 11/14/14
f 7/10/9 9/18/15 14/11/16 13/12/17
f 9/18/15 8/13/8 11/14/14 10/19/18
f 10/19/18 12/15/13 16/16/19 15/20/20
f 2/5/5 5/17/7 11/14/14 8/13/8
f 9/18/15 10/19/18 15/20/20 14/11/16
f 1/1/1 17/32/4 20/8/11 6/7/6
f 4/6/10 19/9/12 16/16/19 12/15/13
f 18/3/3 3/2/2 7/10/9 13/12/17
f 1/4/1 2/5/5 3/22/2
f 4/27/10 5/17/7 6/29/6
f 7/23/9 8/13/8 9/26/15
f 10/24/18 11/14/14 12/25/13
s 2
f 33/33/21 37/34/22 38/35/23 34/36/24
f 33/33/21 34/36/24 36/37/25 35/38/26
f 35/38/26 36/37/25 42/39/27 41/40/28
f 38/35/23 37/34/22 39/41/29 40/42/30
f 40/42/30 39/41/29 44/43/31 43/44/32
f 41/40/28 42/39/27 46/45/33 45/46/34
f 43/44/32 44/43/31 48/47/35 47/48/36
f 45/46/34 46/45/33 50/49/37 49/50/38
f 47/48/36 48/47/35 52/51/39 51/52/40
f 49/50/38 50/49/37 53/53/41 54/54/42
f 51/52/40 52/51/39 55/55/43 56/56/44
f 36/37/25 34/36/24 38/35/23 40/42/30
f 39/41/29 37/34/22 24/57/45 26/58/46
f 23/59/47 33/33/21 35/38/26 25/60/48
f 31/61/49 49/50/38 54/54/42 21/62/50
f 52/51/39 32/63/51 22/64/52 55/55/43
f 50/49/37 51/52/40 56/56/44 53/53/41
f 25/60/48 35/38/26 41/40/28 27/65/53
f 36/37/25 40/42/30 43/44/32 42/39/27
f 39/41/29 26/58/46 28/66/54 44/43/31
f 27/65/53 41/40/28 45/46/34 29/67/55
f 42/39/27 43/44/32 47/48/36 46/45/33
f 44/43/31 28/66/54 30/68/56 48/47/35
f 29/67/55 45/46/34 49/50/38 31/61/49
f 46/45/33 47/48/36 51/52/40 50/49/37
f 48/47/35 30/68/56 32/63/51 52/51/39
f 23/69/47 24/70/45 37/34/22 33/33/21
s 3
f 69/71/57 73/72/58 74/73/59 70/74/60
f 69/71/57 70/74/60 72/75/61 71/76/62
f 71/76/62 72/75/61 78/77/63 77/78/64
f 74/73/59 73/72/58 75/79/65 76/80/66
f 76/80/66 75/79/65 80/81/67 79/82/68
f 77/78/64 78/77/63 82/83/69 81/84/70
f 79/82/68 80/81/67 84/85/71 83/86/72
f 81/84/70 82/83/69 86/87/73 85/88/74
f 83/86/72 84/85/71 88/89/75 87/90/76
f 85/88/74 86/87/73 89/91/77 90/92/78
f 87/90/76 88/89/75 91/93/79 92/94/80
f 72/75/61 70/74/60 74/73/59 76/80/66
f 75/79/65 73/72/58 60/95/81 62/96/82
f 59/97/83 69/71/57 71/76/62 61/98/84
f 67/99/85 85/88/74 90/92/78 57/100/86
f 88/89/75 68/101/87 58/102/88 91/93/79
f 86/87/73 87/90/76 92/94/80 89/91/77
f 61/98/84 71/76/62 77/78/64 63/103/89
f 72/75/61 76/80/66 79/82/68 78/77/63
f 75/79/65 62/96/82 64/104/90 80/81/67
f 63/103/89 77/78/64 81/84/70 65/105/91
f 78/77/63 79/82/68 83/86/72 82/83/69
f 80/81/67 64/104/90 66/106/92 84/85/71
f 65/105/91 81/84/70 85/88/74 67/99/85
f 82/83/69 83/86/72 87/90/76 86/87/73
f 84/85/71 66/106/92 68/101/87 88/89/75
f 59/107/83 60/108/81 73/72/58 69/71/57
